<svg viewBox="0 0 240 72" fill="none" xmlns="http://www.w3.org/2000/svg">
                    <path fill-rule="evenodd" clip-rule="evenodd" d="M13.8915 11.6822H18.0823L23.4211 30.132C19.2795 31.3591 15.2732 33.1832 11.5328 35.6035L16.2494 42.8928C28.3507 35.0625 43.8861 34.9274 56.1218 42.5458L56.7441 42.9333L61.3331 35.563L60.7109 35.1755C57.4767 33.1618 54.0556 31.5873 50.5293 30.4512L55.9605 11.6822H59.4731C62.3502 11.6822 64.6825 14.0145 64.6825 16.8915V54.225C64.6825 57.1021 62.3502 59.4344 59.4731 59.4344H13.8915C11.0145 59.4344 8.68221 57.1021 8.68221 54.225V16.8915C8.68221 14.0145 11.0145 11.6822 13.8915 11.6822ZM46.9431 11.6822H27.0997L31.9558 28.4636C35.3134 28.133 38.7001 28.1729 42.0522 28.584L46.9431 11.6822ZM0 16.8915C0 9.21945 6.21945 3 13.8915 3H59.4731C67.1452 3 73.3647 9.21945 73.3647 16.8915V54.225C73.3647 61.8971 67.1452 68.1166 59.4731 68.1166H13.8915C6.21945 68.1166 0 61.8971 0 54.225V16.8915Z" fill="#D89E21"/>
                    <path fill-rule="evenodd" clip-rule="evenodd" d="M79.4417 28.1784C79.4417 24.3424 82.5514 21.2327 86.3874 21.2327C90.2235 21.2327 93.3332 24.3424 93.3332 28.1784C93.3332 32.0145 90.2235 35.1242 86.3874 35.1242C82.5514 35.1242 79.4417 32.0145 79.4417 28.1784Z" fill="#D89E21"/>
                    <path fill-rule="evenodd" clip-rule="evenodd" d="M82.0466 38.6005V66.3801H90.7288V38.6004C89.3925 39.1577 87.926 39.4655 86.3877 39.4655C84.8494 39.4655 83.383 39.1577 82.0466 38.6005ZM82.0466 33.601V22.7562C83.2357 21.803 84.7451 21.2328 86.3877 21.2328C88.0303 21.2328 89.5397 21.803 90.7288 22.7563V33.6009C89.5397 34.5542 88.0303 35.1244 86.3877 35.1244C84.7451 35.1244 83.2357 34.5542 82.0466 33.601ZM90.7288 17.7568C89.3925 17.1995 87.926 16.8917 86.3877 16.8917C84.8494 16.8917 83.383 17.1995 82.0466 17.7567V4.73645H90.7288V17.7568Z" fill="#D89E21"/>
                    <path d="M181.118 37.0024H209.348V41.4805H181.118V37.0024ZM178.324 37.0024H183.232V46.7825C183.232 52.7294 182.73 62.3304 180.079 68.2056C179.219 67.31 177.034 65.6262 175.959 65.1247C178.181 59.8585 178.324 52.0845 178.324 46.7825V37.0024ZM191.185 34.9963L196.523 34.0648C196.917 35.1754 197.347 36.68 197.526 37.6831L192.009 38.7937C191.901 37.7906 191.507 36.1785 191.185 34.9963ZM184.056 43.415H195.699V47.2482H184.056V43.415ZM196.559 43.415H209.312V47.2482H196.559V43.415ZM187.674 42.0537H191.507V54.3415H187.674V42.0537ZM200.678 42.0537H204.512V54.5206H200.678V42.0537ZM199.926 60.9332L203.652 59.142C205.515 61.1482 208.166 64.1216 209.563 65.9486L205.586 68.0265C204.404 66.1994 201.825 63.1185 199.926 60.9332ZM184.45 68.0623L184.378 65.0888L186.707 63.835L205.73 62.617C205.622 63.7275 205.694 65.4829 205.801 66.3069C188.104 67.5607 185.883 67.5607 184.45 68.0623ZM184.45 68.0623C184.271 67.2383 183.698 65.1247 183.268 63.9783C184.557 63.7992 185.704 63.2976 187.567 62.4378C189.609 61.578 195.914 58.318 200.463 54.5564L204.261 57.1358C198.851 61.0765 192.725 64.1216 187.137 66.1994V66.3069C187.137 66.3069 184.45 67.3458 184.45 68.0623ZM185.489 61.5422L185.453 59.2136L187.065 58.2822L197.096 57.8165C196.63 58.6046 196.057 59.8585 195.806 60.5391C187.531 61.0049 186.241 61.2556 185.489 61.5422ZM185.489 61.5422C185.31 60.7541 184.736 58.8554 184.307 57.7806C185.059 57.6732 185.811 57.3866 186.743 56.885C187.71 56.4551 190.827 54.8072 193.012 52.8727L196.415 55.058C193.8 56.9209 190.54 58.6404 187.567 59.7152V59.8226C187.567 59.8226 185.489 60.8257 185.489 61.5422ZM184.486 48.2155H187.244V49.6485C187.244 51.4039 186.993 53.5892 185.489 55.0938C184.987 54.4848 183.805 53.5534 183.089 53.1593C184.271 52.2278 184.486 50.6157 184.486 49.5052V48.2155ZM197.347 48.1439H200.069V49.541C200.069 51.2248 199.819 53.3384 198.135 54.7356C197.669 54.1265 196.487 53.1951 195.77 52.801C197.132 51.9413 197.347 50.4366 197.347 49.3977V48.1439ZM192.009 48.3946H194.66V51.0815C194.66 51.583 194.696 51.798 195.054 51.798C195.161 51.798 194.624 51.798 194.767 51.798C195.018 51.798 195.699 51.7621 196.057 51.6547C196.093 52.2637 196.093 52.9085 196.164 53.5892C195.878 53.6967 195.305 53.7325 194.803 53.7325C194.517 53.7325 194.66 53.7325 194.23 53.7325C192.331 53.7325 192.009 52.801 192.009 51.0456V48.3946ZM205.049 48.1797H207.843V51.5114C207.843 52.0487 207.879 52.2995 208.309 52.2995C208.452 52.2995 208.309 52.2995 208.488 52.2995C208.846 52.2995 209.599 52.2637 209.957 52.1204C209.993 52.7652 210.029 53.4817 210.1 54.1624C209.778 54.3057 209.097 54.3415 208.56 54.3415C208.202 54.3415 207.951 54.3415 207.485 54.3415C205.407 54.3415 205.049 53.3742 205.049 51.4755V48.1797Z" fill="#1D1D1D"/>
                    <path d="M146.942 34.6027L151.85 36.1431C149.557 42.3049 145.795 49.0399 141.855 53.2314C141.389 51.9417 139.992 49.0399 139.132 47.7503C142.249 44.5977 145.222 39.5823 146.942 34.6027ZM143.861 44.8843L148.948 39.7972V39.833V68.4568H143.861V44.8843ZM150.417 46.0665H173.022V51.1894H150.417V46.0665ZM159.194 35.1042H164.639V68.4926H159.194V35.1042Z" fill="#1D1D1D"/>
                    <path d="M106.711 37.4686H115.309V59.3574H106.711V54.3061H110.616V42.484H106.711V37.4686ZM104.024 37.4686H108.753V62.295H104.024V37.4686ZM119.393 39.224H136.015V44.0603H119.393V39.224ZM118.712 47.0696H130.678V51.8701H118.712V47.0696ZM120.36 34.4594L125.483 35.7132C123.799 40.7645 120.969 45.7082 117.996 48.7892C117.064 47.8577 114.986 46.1381 113.804 45.35C116.67 42.8423 119.07 38.6866 120.36 34.4594ZM129.889 47.0696H130.713L131.86 46.9263L135.335 48.8966C135.191 49.1474 134.941 49.5056 134.654 49.7922C122.438 58.82 121.542 60.4679 121.542 61.6502C121.542 62.5099 122.366 62.7965 123.799 62.7965H130.606C131.896 62.7965 132.469 62.295 132.612 57.9961C134.045 58.7842 135.693 59.3574 137.233 59.644C136.696 66.4148 134.726 67.8836 130.284 67.8836H123.907C118.569 67.8836 116.169 65.6983 116.169 62.4025C116.169 59.8231 116.849 57.387 129.889 47.0696Z" fill="#1D1D1D"/>
                    <path fill-rule="evenodd" clip-rule="evenodd" d="M224.826 62.8397V66.8036L225.95 68.209H230.195L231.549 66.8549V63.0158L230.195 61.6617H226.004L224.826 62.8397ZM225.53 59.5824H230.845V52.9638C230.845 52.619 230.931 52.509 230.96 52.4794C231.113 52.3267 231.526 52.1183 232.425 52.0059L232.459 52.0017L232.492 51.9948C234.872 51.4937 236.801 50.415 238.224 48.7329L238.233 48.7226C239.422 47.2688 240 45.4966 240 43.4569C240 40.6687 239.038 38.3809 237.08 36.6837L237.072 36.6771L237.064 36.6706C234.867 34.8613 231.718 34.0214 227.748 34.0214C223.718 34.0214 220.492 35.1854 218.189 37.6112C216.687 39.1194 215.911 41.7182 215.673 45.1618L215.614 46.0264H221.866V45.2174C221.866 42.9657 222.377 41.5212 223.214 40.6839C224.329 39.5685 225.813 38.9842 227.748 38.9842C229.84 38.9842 231.397 39.4188 232.502 40.201C233.373 41.093 233.805 42.1625 233.805 43.4569C233.805 44.5997 233.497 45.3665 232.985 45.8778L232.963 45.8998L232.943 45.9233C232.697 46.2105 232.256 46.5321 231.546 46.8597C230.854 47.1788 229.955 47.4825 228.834 47.7649C227.708 47.8995 226.733 48.3044 226.196 49.1667C225.711 49.8346 225.53 50.7314 225.53 51.7314V59.5824Z" fill="#1D1D1D"/>
                    <path d="M144.952 15.91C146.632 20.682 150.151 24.1744 155.989 25.614C155.083 26.4671 153.91 28.1466 153.323 29.2396C146.952 27.2402 143.539 23.0814 141.3 16.8165L144.952 15.91ZM132.369 5.83289H153.617V9.83176H132.369V5.83289ZM131.33 13.7773H154.63V17.7762H131.33V13.7773ZM140.714 7.1925H144.819V12.3377C144.819 17.8295 143.433 25.7206 132.796 29.3463C132.316 28.3865 131.09 26.7603 130.263 25.9872C139.594 23.028 140.714 16.4965 140.714 12.2844V7.1925Z" fill="#1D1D1D"/>
                    <path d="M106.51 16.7631H122.479V20.7353H106.51V16.7631ZM117.414 5.45958C119.866 8.20547 124.585 11.2446 128.637 12.9508C127.624 13.8039 126.264 15.4568 125.571 16.5498C121.599 14.3904 117.067 10.7381 114.081 7.13911L117.414 5.45958ZM115.068 3.83337L118.96 5.67286C115.654 10.6315 110.909 14.3371 106.003 16.923C105.364 15.8033 104.137 14.2838 102.991 13.2707C107.63 11.3246 112.428 8.07218 115.068 3.83337ZM122.079 16.7631H122.745L123.412 16.5764L126.504 18.016C124.052 21.615 120.693 26.0138 117.787 29.6661L113.708 27.8C116.694 24.3076 120.319 19.7222 122.079 17.163V16.7631ZM111.522 12.311H120.906V15.9633H111.522V12.311Z" fill="#1D1D1D"/>
                    <g opacity="0.65">
                        <path d="M211.667 27.8403C211.624 23.5721 209.204 19.875 205.679 18.0019C205.016 17.6457 205.016 16.6938 205.679 16.3376C209.198 14.4584 211.611 10.7675 211.654 6.49924V6.3457H211.501C207.233 6.38869 203.542 8.80223 201.662 12.3212C201.306 12.9845 200.354 12.9906 200.004 12.3212C198.1 8.74696 194.336 6.32114 190.006 6.33342C189.994 10.6631 192.42 14.4338 196 16.3315C196.663 16.6877 196.663 17.6396 196 17.9958C192.42 19.8935 189.982 23.6704 190 28C194.33 28.0123 198.107 25.5803 200.004 21.9999C200.361 21.3305 201.312 21.3367 201.669 21.9999C203.542 25.5312 207.239 27.9447 211.513 27.9939H211.667V27.8403Z" fill="#D89E21"/>
                        <path d="M235.808 12.1847L229.078 7.13987C227.642 6.06454 225.696 6.06454 224.255 7.13987L217.525 12.1847C216.089 13.2601 215.485 15.1705 216.034 16.915L218.606 25.0772C219.155 26.8218 220.729 28 222.509 28H230.824C232.604 28 234.178 26.8218 234.727 25.0772L237.299 16.915C237.848 15.1705 237.244 13.2601 235.808 12.1847Z" fill="#D89E21"/>
                        <path d="M179.848 7.16675C177.57 7.16675 175.591 9.28519 174.583 12.4109C173.57 9.29129 171.591 7.16675 169.318 7.16675C166.01 7.16675 163.333 11.6417 163.333 17.1667C163.333 22.6918 166.015 27.1667 169.318 27.1667C171.597 27.1667 173.576 25.0483 174.583 21.9225C175.596 25.0422 177.576 27.1667 179.848 27.1667C183.157 27.1667 185.833 22.6918 185.833 17.1667C185.833 11.6417 183.157 7.16675 179.848 7.16675Z" fill="#D89E21"/>
                    </g>
                </svg>